<svg width="77" height="76" viewBox="0 0 77 76" fill="none" xmlns="http://www.w3.org/2000/svg">
<rect x="2" y="2" width="73" height="71.4903" rx="35.7452" fill="url(#paint0_linear_3787_43374)"/>
<rect x="2" y="2" width="73" height="71.4903" rx="35.7452" stroke="url(#paint1_linear_3787_43374)" stroke-width="4"/>
<path fill-rule="evenodd" clip-rule="evenodd" d="M28.7753 26.5594C28.4963 25.6336 27.6435 25 26.6768 25C24.9756 25 22.2701 25 20.1917 25C19.4985 25 18.8461 25.3281 18.4325 25.8845C18.0192 26.441 17.8931 27.1603 18.0932 27.8239C19.7135 33.2002 23.1919 44.7423 24.454 48.931C24.733 49.8567 25.5858 50.4903 26.5525 50.4903C28.2539 50.4903 30.9593 50.4903 33.0376 50.4903C33.7308 50.4903 34.3833 50.1622 34.7968 49.6058C35.2104 49.0493 35.3362 48.33 35.1361 47.6662C33.5158 42.2901 30.0375 30.7478 28.7753 26.5594Z" fill="#F5F5F5"/>
<path fill-rule="evenodd" clip-rule="evenodd" d="M42.1072 26.5594C41.8282 25.6336 40.9757 25 40.0087 25C38.3076 25 35.602 25 33.5237 25C32.8304 25 32.178 25.3281 31.7644 25.8845C31.3511 26.441 31.2253 27.1603 31.4252 27.8239C32.7136 32.0996 35.1165 40.0728 36.13 43.4352C36.4087 44.361 37.2615 44.9946 38.2282 44.9946C39.9296 44.9946 42.635 44.9946 44.7133 44.9946C45.4067 44.9946 46.059 44.6665 46.4725 44.11C46.8861 43.5536 47.0119 42.8343 46.8118 42.1704C45.5233 37.895 43.1204 29.9216 42.1072 26.5594Z" fill="#F5F5F5"/>
<path fill-rule="evenodd" clip-rule="evenodd" d="M55.5613 26.5594C55.2823 25.6336 54.4297 25 53.4628 25C51.7616 25 49.0562 25 46.9777 25C46.2845 25 45.632 25.3281 45.2187 25.8845C44.8051 26.441 44.6793 27.1603 44.8794 27.8239C45.6555 30.3991 46.7734 34.1093 47.3994 36.1859C47.6781 37.1117 48.5309 37.7451 49.4976 37.7451C51.199 37.7451 53.9044 37.7451 55.9827 37.7451C56.6761 37.7451 57.3284 37.4172 57.7419 36.8607C58.1555 36.3043 58.2813 35.585 58.0812 34.9211C57.3051 32.3459 56.187 28.6357 55.5613 26.5594Z" fill="#F5F5F5"/>
<defs>
<linearGradient id="paint0_linear_3787_43374" x1="63.6087" y1="87.9626" x2="8.27261" y2="24.8403" gradientUnits="userSpaceOnUse">
<stop stop-color="#AC0007"/>
<stop offset="1" stop-color="#ED1D25"/>
</linearGradient>
<linearGradient id="paint1_linear_3787_43374" x1="38.5" y1="0" x2="38.5" y2="75.4903" gradientUnits="userSpaceOnUse">
<stop stop-color="#FFA0A0"/>
<stop offset="1" stop-color="#FFE8E8"/>
</linearGradient>
</defs>
</svg>
