<svg width="264" height="40" viewBox="0 0 264 40" fill="none" xmlns="http://www.w3.org/2000/svg">
<rect x="1" y="1" width="38" height="38" rx="19" stroke="white" stroke-opacity="0.1" stroke-width="2"/>
<path d="M23.1204 13.32H25.0004V10.14C24.0901 10.0454 23.1755 9.99865 22.2604 10C19.5404 10 17.6804 11.66 17.6804 14.7V17.32H14.6104V20.88H17.6804V30H21.3604V20.88H24.4204L24.8804 17.32H21.3604V15.05C21.3604 14 21.6404 13.32 23.1204 13.32Z" fill="#ED1D25"/>
<rect x="57" y="1" width="38" height="38" rx="19" stroke="white" stroke-opacity="0.1" stroke-width="2"/>
<g clip-path="url(#clip0_3787_43815)">
<path d="M67 13.9747C67 13.4023 67.2027 12.9301 67.6081 12.5581C68.0135 12.186 68.5405 12 69.1892 12C69.8263 12 70.3417 12.1832 70.7355 12.5495C71.1409 12.9273 71.3436 13.4195 71.3436 14.0263C71.3436 14.5758 71.1467 15.0337 70.7529 15.4C70.3475 15.7778 69.8147 15.9667 69.1544 15.9667H69.1371C68.5 15.9667 67.9846 15.7778 67.5907 15.4C67.1969 15.0222 67 14.5471 67 13.9747ZM67.2259 29V17.5293H71.083V29H67.2259ZM73.2201 29H77.0772V22.5949C77.0772 22.1942 77.1236 21.8852 77.2162 21.6677C77.3784 21.2784 77.6245 20.9493 77.9546 20.6803C78.2847 20.4113 78.6988 20.2768 79.1969 20.2768C80.4942 20.2768 81.1429 21.1411 81.1429 22.8697V29H85V22.4232C85 20.7289 84.5946 19.4439 83.7838 18.5682C82.973 17.6924 81.9016 17.2545 80.5695 17.2545C79.0753 17.2545 77.9112 17.8899 77.0772 19.1606V19.1949H77.0598L77.0772 19.1606V17.5293H73.2201C73.2432 17.8956 73.2548 19.0347 73.2548 20.9464C73.2548 22.8582 73.2432 25.5427 73.2201 29Z" fill="white"/>
</g>
<rect x="113" y="1" width="38" height="38" rx="19" stroke="white" stroke-opacity="0.1" stroke-width="2"/>
<path d="M137.34 13.46C137.103 13.46 136.871 13.5304 136.673 13.6622C136.476 13.7941 136.322 13.9815 136.231 14.2008C136.141 14.4201 136.117 14.6613 136.163 14.8941C136.209 15.1269 136.324 15.3407 136.491 15.5085C136.659 15.6764 136.873 15.7906 137.106 15.8369C137.339 15.8832 137.58 15.8595 137.799 15.7687C138.018 15.6778 138.206 15.524 138.338 15.3267C138.47 15.1293 138.54 14.8973 138.54 14.66C138.54 14.3417 138.414 14.0365 138.189 13.8115C137.963 13.5864 137.658 13.46 137.34 13.46ZM141.94 15.88C141.921 15.0503 141.765 14.2294 141.48 13.45C141.226 12.7831 140.83 12.1793 140.32 11.68C139.825 11.1674 139.22 10.7742 138.55 10.53C137.773 10.2362 136.951 10.0772 136.12 10.06C135.06 10 134.72 10 132 10C129.28 10 128.94 10 127.88 10.06C127.049 10.0772 126.227 10.2362 125.45 10.53C124.782 10.7766 124.177 11.1696 123.68 11.68C123.167 12.1752 122.774 12.7804 122.53 13.45C122.236 14.2273 122.077 15.0492 122.06 15.88C122 16.94 122 17.28 122 20C122 22.72 122 23.06 122.06 24.12C122.077 24.9508 122.236 25.7727 122.53 26.55C122.774 27.2196 123.167 27.8248 123.68 28.32C124.177 28.8304 124.782 29.2234 125.45 29.47C126.227 29.7638 127.049 29.9228 127.88 29.94C128.94 30 129.28 30 132 30C134.72 30 135.06 30 136.12 29.94C136.951 29.9228 137.773 29.7638 138.55 29.47C139.22 29.2258 139.825 28.8326 140.32 28.32C140.832 27.8226 141.228 27.2182 141.48 26.55C141.765 25.7706 141.921 24.9497 141.94 24.12C141.94 23.06 142 22.72 142 20C142 17.28 142 16.94 141.94 15.88ZM140.14 24C140.133 24.6348 140.018 25.2637 139.8 25.86C139.64 26.2952 139.384 26.6884 139.05 27.01C138.726 27.3405 138.333 27.5964 137.9 27.76C137.304 27.9778 136.675 28.0927 136.04 28.1C135.04 28.15 134.67 28.16 132.04 28.16C129.41 28.16 129.04 28.16 128.04 28.1C127.381 28.1123 126.725 28.0109 126.1 27.8C125.686 27.6281 125.311 27.3728 125 27.05C124.668 26.7287 124.415 26.3352 124.26 25.9C124.016 25.2952 123.88 24.6519 123.86 24C123.86 23 123.8 22.63 123.8 20C123.8 17.37 123.8 17 123.86 16C123.864 15.3511 123.983 14.7079 124.21 14.1C124.386 13.6779 124.656 13.3017 125 13C125.304 12.6562 125.679 12.3831 126.1 12.2C126.71 11.98 127.352 11.8651 128 11.86C129 11.86 129.37 11.8 132 11.8C134.63 11.8 135 11.8 136 11.86C136.635 11.8673 137.264 11.9822 137.86 12.2C138.314 12.3687 138.722 12.6428 139.05 13C139.378 13.3072 139.634 13.6827 139.8 14.1C140.022 14.7089 140.137 15.3518 140.14 16C140.19 17 140.2 17.37 140.2 20C140.2 22.63 140.19 23 140.14 24ZM132 14.87C130.986 14.872 129.995 15.1745 129.153 15.7394C128.31 16.3043 127.654 17.1062 127.268 18.0438C126.881 18.9813 126.781 20.0125 126.98 21.0069C127.179 22.0014 127.668 22.9145 128.386 23.631C129.104 24.3474 130.018 24.835 131.013 25.0321C132.008 25.2293 133.039 25.1271 133.975 24.7385C134.912 24.35 135.713 23.6924 136.276 22.849C136.839 22.0056 137.14 21.0142 137.14 20C137.141 19.3251 137.009 18.6566 136.751 18.033C136.493 17.4093 136.115 16.8428 135.637 16.3661C135.159 15.8893 134.592 15.5117 133.968 15.2549C133.344 14.9982 132.675 14.8674 132 14.87ZM132 23.33C131.341 23.33 130.698 23.1347 130.15 22.7688C129.602 22.4029 129.176 21.8828 128.923 21.2743C128.671 20.6659 128.605 19.9963 128.734 19.3503C128.862 18.7044 129.18 18.111 129.645 17.6453C130.111 17.1796 130.704 16.8625 131.35 16.734C131.996 16.6055 132.666 16.6714 133.274 16.9235C133.883 17.1755 134.403 17.6023 134.769 18.15C135.135 18.6976 135.33 19.3414 135.33 20C135.33 20.4373 135.244 20.8703 135.077 21.2743C134.909 21.6784 134.664 22.0454 134.355 22.3547C134.045 22.6639 133.678 22.9092 133.274 23.0765C132.87 23.2439 132.437 23.33 132 23.33Z" fill="white"/>
<rect x="169" y="1" width="38" height="38" rx="19" stroke="white" stroke-opacity="0.1" stroke-width="2"/>
<path d="M199 17.7095C199.049 16.2781 198.736 14.8575 198.09 13.5795C197.651 13.0551 197.043 12.7012 196.37 12.5795C193.588 12.327 190.794 12.2235 188 12.2695C185.217 12.2215 182.433 12.3216 179.66 12.5695C179.112 12.6692 178.605 12.9263 178.2 13.3095C177.3 14.1395 177.2 15.5595 177.1 16.7595C176.955 18.9171 176.955 21.0819 177.1 23.2395C177.129 23.9149 177.23 24.5853 177.4 25.2395C177.521 25.7446 177.765 26.2118 178.11 26.5995C178.517 27.003 179.036 27.2747 179.6 27.3795C181.756 27.6456 183.928 27.7559 186.1 27.7095C189.6 27.7595 192.67 27.7095 196.3 27.4295C196.877 27.3311 197.411 27.059 197.83 26.6495C198.11 26.3694 198.319 26.0266 198.44 25.6495C198.798 24.5521 198.973 23.4036 198.96 22.2495C199 21.6895 199 18.3095 199 17.7095ZM185.74 22.8495V16.6595L191.66 19.7695C190 20.6895 187.81 21.7295 185.74 22.8495Z" fill="white"/>
<rect x="225" y="1" width="38" height="38" rx="19" stroke="white" stroke-opacity="0.1" stroke-width="2"/>
<path d="M254 13.8002C253.248 14.1263 252.453 14.3419 251.64 14.4402C252.498 13.9275 253.141 13.121 253.45 12.1702C252.644 12.6503 251.761 12.9885 250.84 13.1702C250.225 12.5028 249.405 12.0585 248.51 11.9071C247.615 11.7556 246.695 11.9056 245.894 12.3334C245.093 12.7612 244.457 13.4427 244.085 14.271C243.714 15.0994 243.627 16.0276 243.84 16.9102C242.209 16.8277 240.614 16.4032 239.159 15.6641C237.703 14.925 236.419 13.8879 235.39 12.6202C235.029 13.2504 234.84 13.964 234.84 14.6902C234.839 15.3646 235.004 16.0288 235.322 16.6238C235.639 17.2187 236.099 17.7259 236.66 18.1002C236.008 18.0825 235.37 17.9075 234.8 17.5902V17.6402C234.805 18.5851 235.136 19.4993 235.737 20.2282C236.339 20.957 237.173 21.4559 238.1 21.6402C237.743 21.7488 237.373 21.806 237 21.8102C236.742 21.8072 236.484 21.7838 236.23 21.7402C236.494 22.553 237.005 23.2634 237.691 23.7724C238.378 24.2814 239.206 24.5638 240.06 24.5802C238.617 25.7155 236.836 26.3351 235 26.3402C234.666 26.3413 234.332 26.3213 234 26.2802C235.874 27.4905 238.059 28.1329 240.29 28.1302C241.83 28.1462 243.357 27.8552 244.783 27.2743C246.209 26.6934 247.505 25.8341 248.595 24.7467C249.685 23.6593 250.548 22.3656 251.133 20.9411C251.717 19.5166 252.012 17.9899 252 16.4502C252 16.2802 252 16.1002 252 15.9202C252.785 15.335 253.461 14.6176 254 13.8002Z" fill="white"/>
<defs>
<clipPath id="clip0_3787_43815">
<rect width="18" height="17" fill="white" transform="translate(67 12)"/>
</clipPath>
</defs>
</svg>
